<?xml version="1.0" encoding="iso-8859-1"?>
<!-- Generator: Adobe Illustrator 19.0.0, SVG Export Plug-In . SVG Version: 6.00 Build 0)  -->
<svg version="1.1" id="Layer_1" xmlns="http://www.w3.org/2000/svg" xmlns:xlink="http://www.w3.org/1999/xlink" x="0px" y="0px"
	 viewBox="0 0 512 512" style="enable-background:new 0 0 485 485;" xml:space="preserve">
<g>
	<g>
		<path d="M242.5,485c-64.774,0-125.671-25.225-171.474-71.026C25.225,368.171,0,307.274,0,242.5S25.225,116.829,71.026,71.026
			C116.829,25.225,177.726,0,242.5,0s125.671,25.225,171.474,71.026C459.775,116.829,485,177.726,485,242.5
			s-25.225,125.671-71.026,171.474C368.171,459.775,307.274,485,242.5,485z M242.5,30C125.327,30,30,125.327,30,242.5
			S125.327,455,242.5,455S455,359.673,455,242.5S359.673,30,242.5,30z"/>
	</g>
	<g>
		<polygon points="257.5,257.244 85.003,257.244 85.003,227.244 227.5,227.244 227.5,85 257.5,85 		"/>
	</g>
</g>
<g>
</g>
<g>
</g>
<g>
</g>
<g>
</g>
<g>
</g>
<g>
</g>
<g>
</g>
<g>
</g>
<g>
</g>
<g>
</g>
<g>
</g>
<g>
</g>
<g>
</g>
<g>
</g>
<g>
</g>
</svg>
